<?xml version="1.0" encoding="utf-8"?>
<!-- Generator: Adobe Illustrator 23.0.3, SVG Export Plug-In . SVG Version: 6.00 Build 0)  -->
<svg version="1.1" id="Layer_1" xmlns="http://www.w3.org/2000/svg" xmlns:xlink="http://www.w3.org/1999/xlink" x="0px" y="0px"
	 viewBox="0 0 60 60" style="enable-background:new 0 0 60 60;" xml:space="preserve">
<style type="text/css">
	.st0{fill:#333333;}
	.st1{clip-path:url(#SVGID_2_);}
	.st2{opacity:0.3;}
	.st3{fill:#676767;}
	.st4{opacity:0.3;clip-path:url(#SVGID_4_);}
	.st5{opacity:0.3;clip-path:url(#SVGID_6_);}
	.st6{fill:#FFFFFF;}
	.st7{fill:none;stroke:#FFFFFF;stroke-width:3;stroke-miterlimit:10;}
	.st8{fill:#FF3366;}
	.st9{fill-rule:evenodd;clip-rule:evenodd;fill:#FF3366;}
	.st10{fill:none;stroke:#FFFFFF;stroke-width:4;stroke-miterlimit:10;}
	.st11{fill-rule:evenodd;clip-rule:evenodd;fill:#666666;}
	.st12{fill-rule:evenodd;clip-rule:evenodd;fill:#FFFFFF;}
	.st13{fill:none;}
	.st14{fill:#666666;}
	.st15{opacity:0.4;fill-rule:evenodd;clip-rule:evenodd;fill:#FFFFFF;}
</style>
<g>
	<g>
		<path d="M54,60H6c-3.3,0-6-2.7-6-6V6c0-3.3,2.7-6,6-6h48c3.3,0,6,2.7,6,6v48C60,57.3,57.3,60,54,60z"/>
	</g>
	<g>
		<g>
			<path class="st6" d="M14,45.5h32v-22H14V45.5z M37,26.5h4v4h-4V26.5z M37,32.5h4v4h-4V32.5z M37,38.5h4v4h-4V38.5z M31,26.5h4v4
				h-4V26.5z M31,38.5h4v4h-4V38.5z M25,26.5h4v4h-4V26.5z M25,32.5h4v4h-4V32.5z M25,38.5h4v4h-4V38.5z M19,26.5h4v4h-4V26.5z
				 M19,32.5h4v4h-4V32.5z M19,38.5h4v4h-4V38.5z"/>
			<polygon class="st6" points="41,17.5 39,17.5 39,14.5 39,12.5 35,12.5 35,14.5 25,14.5 25,17.5 23,17.5 23,14.5 23,12.5 19,12.5 
				19,14.5 14,14.5 14,20.5 46,20.5 46,14.5 41,14.5 			"/>
		</g>
		<rect x="31" y="32.5" class="st8" width="4" height="4"/>
	</g>
</g>
</svg>
